<?xml version="1.0" encoding="utf-8"?>
<!-- Generator: Adobe Illustrator 23.1.0, SVG Export Plug-In . SVG Version: 6.00 Build 0)  -->
<svg version="1.1" id="Capa_1" xmlns="http://www.w3.org/2000/svg" xmlns:xlink="http://www.w3.org/1999/xlink" x="0px" y="0px"
	 viewBox="0 0 512 512" style="enable-background:new 0 0 512 512;" xml:space="preserve">
<style type="text/css">
	.st0{fill:#FFFFFF;}
	.st1{fill:#D63447;}
</style>
<g>
	<g>
		<path class="st0" d="M483.2,33.8H29.3C13.1,33.8,0,46.9,0,63.1v227.5l0,0v71.3c0,16.1,13.1,29.3,29.3,29.3h46.1
			c4.3,0,7.7-3.5,7.7-7.7c0-4.3-3.5-7.7-7.7-7.7H29.3c-7.6,0-13.8-6.2-13.8-13.8v-63.5h481.1V362c0,7.6-6.2,13.8-13.8,13.8H110.4
			c-4.3,0-7.7,3.5-7.7,7.7c0,4.3,3.5,7.7,7.7,7.7h82.2v41c-20.8,0.4-37.7,17.4-37.7,38.4c0,4.3,3.5,7.7,7.7,7.7h186.7
			c4.3,0,7.7-3.5,7.7-7.7c0-20.9-16.8-38-37.7-38.4v-41h163.3c16.1,0,29.3-13.1,29.3-29.3V62.7C512,46.8,499.1,33.8,483.2,33.8z
			 M208.1,391.1h95.8v41h-95.8L208.1,391.1L208.1,391.1z M340.3,462.7H171.8c3.2-8.8,11.6-15.1,21.5-15.1h125.4
			C328.6,447.6,337.1,453.9,340.3,462.7z M496.5,282.8H384.1V174h112.4V282.8z M496.5,158.6H384.1V95.3c0-4.3-3.5-7.7-7.7-7.7
			c-4.3,0-7.7,3.5-7.7,7.7v187.6H15.5V63.1c0-7.6,6.2-13.8,13.8-13.8h339.4v14.4c0,4.3,3.5,7.7,7.7,7.7c4.3,0,7.7-3.5,7.7-7.7v-14
			h99c7.4,0,13.4,6,13.4,13.4V158.6z"/>
	</g>
</g>
<g>
	<g>
		<path class="st0" d="M260.2,313.6c-12.9,0-23.4,10.5-23.4,23.4s10.5,23.4,23.4,23.4s23.4-10.5,23.4-23.4S273,313.6,260.2,313.6z
			 M260.2,344.9c-4.4,0-7.9-3.6-7.9-7.9s3.5-7.9,7.9-7.9s7.9,3.5,7.9,7.9S264.5,344.9,260.2,344.9z"/>
	</g>
</g>
<g>
	<g>
		<path class="st0" d="M425.5,79.8h-21.3c-4.3,0-7.7,3.5-7.7,7.7s3.5,7.7,7.7,7.7h21.3c4.3,0,7.7-3.5,7.7-7.7S429.8,79.8,425.5,79.8
			z"/>
	</g>
</g>
<g>
	<g>
		<path class="st0" d="M474.9,79.8h-21.3c-4.3,0-7.7,3.5-7.7,7.7s3.5,7.7,7.7,7.7h21.3c4.3,0,7.7-3.5,7.7-7.7S479.2,79.8,474.9,79.8
			z"/>
	</g>
</g>
<g>
	<g>
		<path class="st0" d="M425.5,113h-21.3c-4.3,0-7.7,3.5-7.7,7.7s3.5,7.7,7.7,7.7h21.3c4.3,0,7.7-3.5,7.7-7.7S429.8,113,425.5,113z"
			/>
	</g>
</g>
<g>
	<g>
		<path class="st0" d="M472.6,202.5h-68.4c-4.3,0-7.7,3.5-7.7,7.7s3.5,7.7,7.7,7.7h68.5c4.3,0,7.7-3.5,7.7-7.7
			S476.9,202.5,472.6,202.5z"/>
	</g>
</g>
<g>
	<g>
		<path class="st0" d="M472.6,238.9h-68.4c-4.3,0-7.7,3.5-7.7,7.7s3.5,7.7,7.7,7.7h68.5c4.3,0,7.7-3.5,7.7-7.7
			C480.4,242.4,476.9,238.9,472.6,238.9z"/>
	</g>
</g>
<g>
	<g>
		<path class="st0" d="M474.9,113h-21.3c-4.3,0-7.7,3.5-7.7,7.7s3.5,7.7,7.7,7.7h21.3c4.3,0,7.7-3.5,7.7-7.7S479.2,113,474.9,113z"
			/>
	</g>
</g>
<g>
	<g>
		<circle class="st0" cx="38.3" cy="67.4" r="7.7"/>
	</g>
</g>
<g>
	<g>
		<circle class="st0" cx="68.4" cy="67.4" r="7.7"/>
	</g>
</g>
<g>
	<g>
		<circle class="st0" cx="97" cy="67.4" r="7.7"/>
	</g>
</g>
<g>
	<g>
		<path d="M231.9,68.9c-39.1,0-71,31.1-72.5,69.8h-8.1v-2.6c0-6.6-5.4-12-12-12h-20.7c-6.6,0-12,5.4-12,12v20.7c0,6.6,5.4,12,12,12
			h4.4v50h-4.4c-6.6,0-12,5.4-12,12v20.7c0,6.6,5.4,12,12,12h20.7c6.6,0,12-5.4,12-12V249h51.8v2.6c0,6.6,5.4,12,12,12h20.7
			c6.6,0,12-5.4,12-12v-20.7c0-6.6-5.4-12-12-12h-2.6V214c4.8-0.1,9.5-0.6,14.1-1.6c4.2-0.9,6.8-5,5.9-9.2c-0.9-4.2-5-6.8-9.2-5.9
			c-3.5,0.8-7.2,1.2-10.9,1.3v-29.7h2.6c6.6,0,12-5.4,12-12v-20.7c0-6.6-5.4-12-12-12H215c-6.6,0-12,5.4-12,12v2.6h-28.2
			c1.4-30.2,26.5-54.4,57-54.4c31.5,0,57.1,25.6,57.1,57.1c0,17.2-7.7,33.3-21,44.2c-3.3,2.7-3.8,7.6-1.1,10.9
			c1.5,1.9,3.8,2.8,6,2.8c1.7,0,3.5-0.6,4.9-1.7c16.9-13.9,26.7-34.3,26.7-56.2C304.5,101.5,271.9,68.9,231.9,68.9z M135.9,248.2
			h-13.8v-13.8h13.8V248.2z M135.9,153.4h-13.8v-13.8h13.8V153.4z M218.6,139.6h13.9v13.8h-13.9V139.6z M218.6,234.3h13.9v13.8
			h-13.9V234.3z M203.1,154.2v2.6c0,6.6,5.4,12,12,12h2.6v50h-2.6c-6.6,0-12,5.4-12,12v2.6h-51.8v-2.6c0-6.6-5.4-12-12-12h-0.9v-50
			h0.9c6.6,0,12-5.4,12-12v-2.6H203.1z"/>
	</g>
</g>
<path class="st1" d="M231.9,68.9c-39.1,0-71,31.1-72.5,69.8h-8.1v-2.6c0-6.6-5.4-12-12-12h-20.7c-6.6,0-12,5.4-12,12v20.7
	c0,6.6,5.4,12,12,12h4.4v50h-4.4c-6.6,0-12,5.4-12,12v20.7c0,6.6,5.4,12,12,12h20.7c6.6,0,12-5.4,12-12V249h51.8v2.6
	c0,6.6,5.4,12,12,12h20.7c6.6,0,12-5.4,12-12v-20.7c0-6.6-5.4-12-12-12h-2.6V214c4.8-0.1,9.5-0.6,14.1-1.6c4.2-0.9,6.8-5,5.9-9.2
	c-0.9-4.2-5-6.8-9.2-5.9c-3.5,0.8-7.2,1.2-10.9,1.3v-29.7h2.6c6.6,0,12-5.4,12-12v-20.7c0-6.6-5.4-12-12-12H215c-6.6,0-12,5.4-12,12
	v2.6h-28.2c1.4-30.2,26.5-54.4,57-54.4c31.5,0,57.1,25.6,57.1,57.1c0,17.2-7.7,33.3-21,44.2c-3.3,2.7-3.8,7.6-1.1,10.9
	c1.5,1.9,3.8,2.8,6,2.8c1.7,0,3.5-0.6,4.9-1.7c16.9-13.9,26.7-34.3,26.7-56.2C304.5,101.5,271.9,68.9,231.9,68.9z M135.9,248.2
	h-13.8v-13.8h13.8V248.2z M135.9,153.4h-13.8v-13.8h13.8V153.4z M218.6,139.6h13.9v13.8h-13.9V139.6z M218.6,234.3h13.9v13.8h-13.9
	V234.3z M203.1,154.2v2.6c0,6.6,5.4,12,12,12h2.6v50h-2.6c-6.6,0-12,5.4-12,12v2.6h-51.8v-2.6c0-6.6-5.4-12-12-12h-0.9v-50h0.9
	c6.6,0,12-5.4,12-12v-2.6H203.1z"/>
<path class="st1" d="M253.2,88.3L253.2,88.3z"/>
</svg>
