<?xml version="1.0" encoding="utf-8"?>
<!-- Generator: Adobe Illustrator 23.1.0, SVG Export Plug-In . SVG Version: 6.00 Build 0)  -->
<svg version="1.1" id="Capa_1" xmlns="http://www.w3.org/2000/svg" xmlns:xlink="http://www.w3.org/1999/xlink" x="0px" y="0px"
	 viewBox="0 0 512 512" style="enable-background:new 0 0 512 512;" xml:space="preserve">
<style type="text/css">
	.st0{fill:#FFFFFF;}
	.st1{fill:#D63447;}
</style>
<g>
	<g>
		<path d="M353.4,299.3c-2.2,3.2-6.8,4.2-10.1,2.2l-68.3-42l-20.5-3.6c-4-0.7-6.8-4.7-6.1-8.7s4.7-6.8,8.7-6.1l21.8,3.8
			c1,0.2,2,0.5,2.8,1l69.5,42.7C354.7,290.9,355.8,295.8,353.4,299.3z"/>
	</g>
</g>
<g>
	<g>
		<path class="st0" d="M447.1,318.5l-7.5-7.3l0,0l-3.1-3.1l0,0l0,0c0,0,0,0,0,0c1,1,2.1,2,3.1,3.1c0,0,0,0,0,0
			c2.6,2.5,5.2,5.1,7.8,7.6l0.1,0L447.1,318.5z M132.4,219.3l-5.6,14.3l0.1,0L132.4,219.3L132.4,219.3z M451.9,323.2l-4.3-4.5
			l-0.1,0.1c0.1,0.2,0.3,0.3,0.5,0.5c1.4,1.4,2.8,2.7,4.2,4.1C452,323.3,451.9,323.3,451.9,323.2z M452,323.3l11.1,11.6
			c0.7,0.7,1.4,1.2,2.2,1.5C460.9,332.1,456.5,327.7,452,323.3z"/>
		<path class="st1" d="M435.4,339.9l-5.1-3.2l3-3.1l14-14.7c-2.6-2.5-5.2-5.1-7.8-7.6c0,0,0,0,0,0c-1-1-2.1-2-3.1-3.1c0,0,0,0,0,0
			l0,0l-0.3,0.3l0,0l-0.6,0.6l-14.3,15.2l-4.5,4.8l-37.2-22.9c-0.5-0.3-1-0.5-1.5-0.7c-3.2-1.1-7,0.2-8.8,3.2
			c-2.1,3.4-1,8.2,2.5,10.3l23.4,14.4l32,19.6c7.8,4.8,10.2,15,5.4,22.7c-1.8,3-4.5,5.2-7.5,6.5c-4.8,2.1-10.4,1.9-15.2-1.1
			l-59.4-36.5c-3.5-2.2-8.2-1.1-10.3,2.5c-2.2,3.5-1.1,8.2,2.5,10.3l45.8,28.1c7.7,4.7,10.1,15,5.4,22.7c-4.7,7.7-15,10.1-22.7,5.4
			l-41.5-25.5c-3.5-2.2-8.1-1.1-10.3,2.5c-2.2,3.5-1.1,8.1,2.5,10.3l27.9,17.1c7.7,4.7,10.1,15,5.4,22.7c-4.7,7.7-15,10.1-22.7,5.4
			c0,0-24.5-15-24.7-15.2c-3.4-1.7-7.6-0.5-9.6,2.8c-2.2,3.5-1.1,8.1,2.5,10.3l10.4,6.4c7.8,4.8,10.2,15,5.4,22.7
			c-4.7,7.7-15,10.1-22.7,5.4l-4.2-2.6l3.5-5.7c4.5-7.3,5.9-16.3,3.8-24.7c-2-8.3-7.1-15.2-14.3-19.4c-5.6-3.3-11.9-4.7-18-4.3
			c1.2-4.9,1.2-10.2-0.1-15.1c-2-8.3-7.1-15.2-14.3-19.4c-5.6-3.3-11.9-4.7-18-4.3c3.1-13.3-2.6-27.6-14.4-34.6
			c-5.6-3.3-11.9-4.7-18-4.3c3.1-13.3-2.6-27.6-14.4-34.6c-14.7-8.7-33.9-3.9-42.8,10.6l-14.3,23.1l-16.7,27l-31-17.4L75,366.9
			l28.6,16l-3.2,5.2c-9.1,14.8-4.5,34.2,10.3,43.3c1.6,1,3.4,1.9,5.1,2.5c6.7,2.6,14.2,2.8,21.1,0.6c1.4,9.1,6.8,17.2,14.6,22.1
			c7.8,4.8,17.5,6,26.3,3.1c1.4,9.1,6.8,17.2,14.6,22.1c7.9,4.8,17.5,6,26.3,3.2c1.4,9.1,6.8,17.2,14.6,22.1
			c5,3.1,10.8,4.6,16.5,4.6c7.3,0,14.5-2.5,20.2-7.3c2.6-2.2,4.8-4.8,6.6-7.6l5.1-8.3l4.2,2.6c11.4,7,26.5,5.9,36.8-2.7
			c2.6-2.2,4.8-4.8,6.6-7.7c3.5-5.7,5-12.1,4.6-18.4c2.4,0.6,4.8,0.9,7.3,0.9c10.9,0,21.2-5.8,26.9-15c3.4-5.6,5-12,4.6-18.4
			c2.4,0.6,4.8,0.9,7.3,0.9c10.9,0,21.2-5.7,26.9-15c3.4-5.6,5-12,4.6-18.4c2.4,0.6,4.8,0.9,7.3,0.9c5,0,10-1.2,14.5-3.5
			c5-2.5,9.3-6.4,12.4-11.5C454.8,368.4,450.2,349,435.4,339.9z M140.9,413.7c-4.8,7.7-15,10.2-22.7,5.4c-0.2-0.1-0.4-0.3-0.6-0.4
			c-7.3-4.9-9.4-14.8-4.8-22.3l10-16.2l32-51.9c4.7-7.6,14.8-10.1,22.4-5.5c7.9,4.7,10.1,15.6,5.4,23.3L140.9,413.7z M181.8,438.9
			c-4.8,7.8-15,10.2-22.7,5.4c-7.7-4.7-10.1-15-5.4-22.7l33.6-54.5c4.7-7.6,14.8-10.1,22.4-5.5c8,4.7,10.2,15.6,5.4,23.3
			L181.8,438.9z M222.6,464.1c-2.3,3.8-6,6.4-10.2,7.4c-4.3,1-8.7,0.3-12.5-2c-7.6-4.7-10.1-15-5.4-22.7l25.2-40.8
			c4.7-7.6,14.8-10.1,22.4-5.5c8,4.7,10.1,15.6,5.4,23.3L222.6,464.1z M280,462.6l-16.5,26.8c-4.7,7.7-15,10.1-22.7,5.4
			s-10.1-15-5.4-22.7l16.8-27.2c4.7-7.6,14.8-10.1,22.4-5.5C282.6,443.9,284.8,454.8,280,462.6z"/>
		<path class="st0" d="M509.5,291.2c2.8,3,2.7,7.8-0.4,10.6l-35.6,33.3c-0.5,0.4-1,0.8-1.5,1.1c-2.1,1.1-4.6,1.2-6.7,0.3
			c-4.4-4.4-8.9-8.8-13.3-13.1c0,0-0.1-0.1-0.1-0.1c-1.3-1.3-2.7-2.6-4-4c-0.2-0.1-0.3-0.3-0.5-0.5l-0.3-0.3c-2.5-2.5-5-4.9-7.5-7.3
			c0,0,0,0,0,0c-1-1-2.1-2-3.1-3.1c0,0,0,0,0,0c-35.9-35.3-71.8-70.7-107.7-106c-1-1-2.1-2.1-3.1-3.1l-13.9-13.6
			c-1.6-2.9-1.1-6.7,1.4-9.1l18.2-17L498.9,2.1c3-2.8,7.8-2.7,10.6,0.3c2.8,3,2.7,7.8-0.4,10.6L353.3,159.1l-24.2,22.7l139.3,137.5
			l3.5-3.3l26.9-25.2C501.9,288,506.7,288.2,509.5,291.2z"/>
		<path class="st0" d="M135,211.4l-3,7.8l0.5,0.1l0,0l-5.6,14.3l-0.1,0l-0.4-0.1L79.6,352.8l0.5,0.3l-5.5,14.1l-0.6-0.3l-11,28.5
			c-1.5,3.7-5.7,5.7-9.5,4.3l-2.5-0.9L5.5,382.7c-3.9-1.4-5.9-5.7-4.6-9.6c1.4-3.9,5.7-5.9,9.6-4.6L51,382.9l0.6,0.2l66.6-170.3
			L51,185.9L5.2,167.6c-3.8-1.5-5.7-5.9-4.2-9.8c1.5-3.8,5.9-5.7,9.8-4.2L51,169.8l79.8,31.9C134.6,203.2,136.5,207.5,135,211.4z"/>
	</g>
</g>
<path class="st1" d="M353.4,299.3c-2.2,3.2-6.8,4.2-10.1,2.2l-68.3-42l-20.5-3.6c-4-0.7-6.8-4.7-6.1-8.7s4.7-6.8,8.7-6.1l21.8,3.8
	c1,0.2,2,0.5,2.8,1l69.5,42.7C354.7,290.9,355.8,295.8,353.4,299.3z"/>
<path class="st1" d="M447.1,318.5l-7.5-7.3l0,0l-3.1-3.1l0,0l0,0c0,0,0,0,0,0c1,1,2.1,2,3.1,3.1c0,0,0,0,0,0
	c2.6,2.5,5.2,5.1,7.8,7.6l0.1,0L447.1,318.5z"/>
<path class="st1" d="M336,209.5l-0.1,0.1h0l-2.7,2.4l-4.4,3.9c-1.2,1.2-2.9,1.8-4.6,1.9h-0.9l-4.3-0.4l-79.3-6.8l-70.3,32
	c-8.3,3.8-12,13.6-8.2,21.9s13.6,12,21.9,8.2l43.9-20c3.7-1.7,8.2,0,9.9,3.7c1.7,3.7,0,8.2-3.7,9.9l-43.9,20
	c-4.2,1.9-8.6,2.8-13,2.8c-11.9,0-23.4-6.8-28.7-18.4c-5.1-11.2-3-23.8,4.2-32.8l-9.4-1.7l-15.6-2.7l0,0l5.6-14.3l0.1,0l11.9,2.1
	l25,4.4c0.2,0,0.4,0,0.6,0.1l65.3-29.7c1.2-0.5,2.5-0.7,3.8-0.6l70.1,6l5.5,0.5l6.8,0.6l3.9-3.5l0,0l0,0h0c1,1,2.1,2.1,3.1,3.1
	c1.4,1.4,2.9,2.8,4.3,4.3C334,207.4,335,208.4,336,209.5z"/>
</svg>
