<?xml version="1.0" encoding="utf-8"?>
<!-- Generator: Adobe Illustrator 23.1.0, SVG Export Plug-In . SVG Version: 6.00 Build 0)  -->
<svg version="1.1" id="Capa_1" xmlns="http://www.w3.org/2000/svg" xmlns:xlink="http://www.w3.org/1999/xlink" x="0px" y="0px"
	 viewBox="0 0 627.2 512" style="enable-background:new 0 0 627.2 512;" xml:space="preserve">
<style type="text/css">
	.st0{fill:#FFFFFF;}
	.st1{fill:#D63447;}
</style>
<ellipse class="st0" cx="258" cy="35.8" rx="10.1" ry="10.1"/>
<path class="st0" d="M285.3,43.3h39.4c4.1,0,7.5-3.4,7.5-7.5s-3.4-7.5-7.5-7.5h-39.4c-4.1,0-7.5,3.4-7.5,7.5S281.1,43.3,285.3,43.3z
	"/>
<path class="st1" d="M130.7,147.5c-4.1,0-7.5,3.4-7.5,7.5v80.8c0,15.3,12.4,27.7,27.7,27.7h20.2c15.3,0,27.7-12.4,27.7-27.7V155
	c0-4.1-3.4-7.5-7.5-7.5s-7.5,3.4-7.5,7.5v80.8c0,7-5.7,12.7-12.7,12.7h-20.2c-7,0-12.7-5.7-12.7-12.7V155
	C138.2,150.8,134.9,147.5,130.7,147.5z"/>
<path class="st1" d="M389.6,132.2c-4.1,0-7.5,3.4-7.5,7.5v80.8c0,15.3,12.4,27.7,27.7,27.7H430c15.3,0,27.7-12.4,27.7-27.7v-80.8
	c0-4.1-3.4-7.5-7.5-7.5s-7.5,3.4-7.5,7.5v80.8c0,7-5.7,12.7-12.7,12.7h-20.2c-7,0-12.7-5.7-12.7-12.7v-80.8
	C397.1,135.5,393.7,132.2,389.6,132.2z"/>
<path class="st1" d="M227.9,262.4c1.2,0.7,2.5,1.1,3.9,1.1c2.5,0,5-1.3,6.4-3.6l23.9-39.8l23.9,39.8c1.4,2.3,3.9,3.6,6.4,3.6
	c1.3,0,2.6-0.3,3.9-1.1c3.6-2.1,4.7-6.7,2.6-10.3l-28-46.6l28-46.6c2.1-3.6,1-8.2-2.6-10.3s-8.2-1-10.3,2.6L262.1,191l-23.9-39.8
	c-2.1-3.6-6.7-4.7-10.3-2.6c-3.6,2.1-4.7,6.7-2.6,10.3l28,46.6l-28,46.6C223.2,255.7,224.3,260.3,227.9,262.4L227.9,262.4z"/>
<path class="st1" d="M505.8,239.3c0,3.6-2.9,6.4-6.4,6.5c-1.2,0-2.3-0.3-3.3-0.9c-1.9-1.1-3.1-3.2-3.1-5.5l-0.1-30.7v-9.1V185v-11.7
	l-0.1-35c0-3.6,2.9-6.4,6.4-6.5c3.6,0,6.4,2.9,6.4,6.4l0.1,30.1c0,3.2,0,6.5,0,9.7c0,4.9,0,9.7,0,14.6c0,4.6,0,9.1,0,13.7l0,0
	L505.8,239.3z"/>
<path class="st1" d="M231.8,374.8h-40.4c-4.1,0-7.5,3.4-7.5,7.5v40.4c0,4.1,3.4,7.5,7.5,7.5h40.4c4.1,0,7.5-3.4,7.5-7.5v-40.4
	C239.3,378.1,235.9,374.8,231.8,374.8z M224.3,415.2h-25.4v-25.4h25.4V415.2z"/>
<path class="st1" d="M306.5,374.8h-40.4c-4.1,0-7.5,3.4-7.5,7.5v40.4c0,4.1,3.4,7.5,7.5,7.5h40.4c4.1,0,7.5-3.4,7.5-7.5v-40.4
	C314,378.1,310.6,374.8,306.5,374.8z M299,415.2h-25.4v-25.4H299V415.2z"/>
<path class="st1" d="M381.3,374.8h-40.4c-4.1,0-7.5,3.4-7.5,7.5v40.4c0,4.1,3.4,7.5,7.5,7.5h40.4c4.2,0,7.5-3.4,7.5-7.5v-40.4
	C388.8,378.1,385.4,374.8,381.3,374.8z M373.8,415.2h-25.4v-25.4h25.4V415.2z"/>
<path class="st0" d="M434.9,472V260.2h-15v206.5H152v-101c0-4.1-3.4-7.5-7.5-7.5s-7.5,3.4-7.5,7.5v138.8c0,4.1,3.4,7.5,7.5,7.5
	h282.9c4.1,0,7.5-3.4,7.5-7.5v-28.1c0.2-0.7,0.3-1.4,0.3-2.2C435.2,473.4,435.1,472.7,434.9,472z M419.9,497H152v-15.3h267.9V497z"
	/>
<path class="st0" d="M137,293.8v36.6c0,4.1,3.4,7.5,7.5,7.5s7.5-3.4,7.5-7.5v-36.6H137z M427.4,0H144.5c-4.1,0-7.5,3.4-7.5,7.5
	v109.7h15V45.3h57.8l7.3,16.1c4.5,9.9,14.4,16.2,25.2,16.2h87.1c10.8,0,20.7-6.4,25.2-16.2l7.3-16.1h57.8v68.3h7.4
	c4.2,0,7.6-3.4,7.6-7.5V7.5C434.9,3.4,431.5,0,427.4,0z M357.2,30.3c-2.9,0-5.6,1.7-6.8,4.4l-9.3,20.5c-2.1,4.5-6.6,7.5-11.6,7.5
	h-87.1c-5,0-9.5-2.9-11.6-7.5l-9.3-20.5c-1.2-2.7-3.9-4.4-6.8-4.4H152V15h267.8v15.3H357.2z"/>
<path class="st0" d="M350.4,144.9v121.2c0,0.6,0,1.2-0.1,1.8c-0.6,10-6.6,18.5-15,22.8c-3.8,2-8.1,3.1-12.6,3.1h-2.6v43
	c0,3-1.8,5.8-4.6,6.9c-0.9,0.4-1.9,0.6-2.9,0.6c-2,0-3.9-0.8-5.3-2.2L259,293.8H152l0,0h-15l0,0h-36.6c-15.3,0-27.7-12.4-27.7-27.7
	V144.9c0-15.3,12.4-27.7,27.7-27.7h94.1c4.2,0,7.5,3.4,7.5,7.5c0,4.1-3.3,7.5-7.5,7.5h-94.1c-7,0-12.7,5.7-12.7,12.7v121.2
	c0,7,5.7,12.7,12.7,12.7H262c2,0,3.9,0.8,5.3,2.2l37.7,37.7v-32.4c0-4.1,3.4-7.5,7.5-7.5h10.1c3.5,0,6.6-1.4,8.9-3.6
	c2.4-2.3,3.8-5.5,3.8-9.1V144.9c0-7-5.7-12.7-12.7-12.7h-93.2c-4.1,0-7.5-3.4-7.5-7.5s3.4-7.5,7.5-7.5h93.2c0.4,0,0.8,0,1.2,0
	C338.6,117.8,350.4,130,350.4,144.9z"/>
<path class="st0" d="M434.9,106.1c0,4.1-3.4,7.5-7.6,7.5H333c-3.5,0-6.7,1.4-9,3.6c-2.4,2.3-3.9,5.5-3.9,9.1v5.9H305v-5.9
	c0-3.2,0.5-6.3,1.6-9.1c3.8-10.8,14.2-18.6,26.5-18.6h94.3C431.5,98.6,434.9,101.9,434.9,106.1z"/>
<path class="st0" d="M582.6,126.3v121.2c0,15.3-12.4,27.7-27.7,27.7h-36.6l0,0h-15l0,0H396.4l-48.3,48.3c-1.4,1.4-3.3,2.2-5.3,2.2
	c-1,0-1.9-0.2-2.9-0.6c-2.8-1.2-4.6-3.9-4.6-6.9v-43h-2.6c-0.4,0-0.8,0-1.2,0c2.4-2.3,3.8-5.5,3.8-9.1v-5.9h7.4
	c4.1,0,7.5,3.4,7.5,7.5v32.4l37.7-37.7c1.4-1.4,3.3-2.2,5.3-2.2h161.6c7,0,12.7-5.7,12.7-12.7V126.3c0-7-5.7-12.7-12.7-12.7h-94.1
	c-4.2,0-7.5-3.4-7.5-7.5s3.3-7.5,7.5-7.5h94.1C570.2,98.6,582.6,111,582.6,126.3z"/>
</svg>
